<svg width="31" height="31" viewBox="0 0 31 31" fill="none" xmlns="http://www.w3.org/2000/svg">
<path d="M26.6489 21.4263C25.9635 20.2469 24.9451 16.9204 24.9451 12.5938C24.9451 10.0887 23.95 7.68625 22.1787 5.91491C20.4073 4.14357 18.0049 3.14844 15.4998 3.14844C12.9948 3.14844 10.5923 4.14357 8.82098 5.91491C7.04964 7.68625 6.05451 10.0887 6.05451 12.5938C6.05451 16.9216 5.0349 20.2469 4.34951 21.4263C4.19913 21.6838 4.11934 21.9765 4.11818 22.2747C4.11702 22.5729 4.19454 22.8661 4.34291 23.1248C4.49128 23.3834 4.70526 23.5984 4.96325 23.7479C5.22125 23.8975 5.51412 23.9764 5.81232 23.9766H10.9564C11.1329 25.0536 11.6864 26.0329 12.5182 26.7395C13.3501 27.4462 14.406 27.8341 15.4974 27.8341C16.5888 27.8341 17.6447 27.4462 18.4766 26.7395C19.3084 26.0329 19.8619 25.0536 20.0384 23.9766H25.1873C25.4853 23.9759 25.7779 23.8968 26.0355 23.747C26.2932 23.5973 26.5068 23.3823 26.6549 23.1237C26.803 22.8651 26.8803 22.5721 26.879 22.2741C26.8778 21.9761 26.798 21.6837 26.6477 21.4263H26.6489ZM15.4998 26.3984C14.7913 26.3982 14.1036 26.159 13.5479 25.7195C12.9921 25.28 12.6009 24.666 12.4374 23.9766H18.5623C18.3988 24.666 18.0075 25.28 17.4518 25.7195C16.8961 26.159 16.2083 26.3982 15.4998 26.3984ZM25.3944 22.4023C25.3745 22.4394 25.3447 22.4703 25.3084 22.4917C25.2721 22.513 25.2306 22.524 25.1885 22.5234H5.81232C5.77021 22.524 5.72875 22.513 5.69245 22.4917C5.65615 22.4703 5.62641 22.4394 5.60646 22.4023C5.58521 22.3655 5.57402 22.3238 5.57402 22.2812C5.57402 22.2387 5.58521 22.197 5.60646 22.1602C6.52314 20.5859 7.50764 16.9156 7.50764 12.5938C7.50764 10.4741 8.34967 8.44125 9.8485 6.94242C11.3473 5.44359 13.3802 4.60156 15.4998 4.60156C17.6195 4.60156 19.6523 5.44359 21.1512 6.94242C22.65 8.44125 23.492 10.4741 23.492 12.5938C23.492 16.9144 24.4777 20.5799 25.3944 22.1602C25.4157 22.197 25.4268 22.2387 25.4268 22.2812C25.4268 22.3238 25.4157 22.3655 25.3944 22.4023Z" fill="#D9D9D9"/>
<circle cx="24.1072" cy="6.39286" r="5.89286" fill="#F73636"/>
</svg>
