<svg width="40" height="40" viewBox="0 0 40 40" fill="none" xmlns="http://www.w3.org/2000/svg">
<rect width="40" height="40" rx="12" fill="#253C25"/>
<path d="M28.0625 12.5V17C28.0625 17.1492 28.0032 17.2923 27.8977 17.3977C27.7923 17.5032 27.6492 17.5625 27.5 17.5625C27.3508 17.5625 27.2077 17.5032 27.1023 17.3977C26.9968 17.2923 26.9375 17.1492 26.9375 17V13.8575L21.8975 18.8975C21.7909 18.9969 21.6498 19.051 21.5041 19.0484C21.3584 19.0458 21.2193 18.9868 21.1163 18.8837C21.0132 18.7807 20.9542 18.6416 20.9516 18.4959C20.949 18.3502 21.0031 18.2091 21.1025 18.1025L26.1425 13.0625H23C22.8508 13.0625 22.7077 13.0032 22.6023 12.8977C22.4968 12.7923 22.4375 12.6492 22.4375 12.5C22.4375 12.3508 22.4968 12.2077 22.6023 12.1023C22.7077 11.9968 22.8508 11.9375 23 11.9375H27.5C27.6492 11.9375 27.7923 11.9968 27.8977 12.1023C28.0032 12.2077 28.0625 12.3508 28.0625 12.5ZM18.1025 21.1025L13.0625 26.1425V23C13.0625 22.8508 13.0032 22.7077 12.8977 22.6023C12.7923 22.4968 12.6492 22.4375 12.5 22.4375C12.3508 22.4375 12.2077 22.4968 12.1023 22.6023C11.9968 22.7077 11.9375 22.8508 11.9375 23V27.5C11.9375 27.6492 11.9968 27.7923 12.1023 27.8977C12.2077 28.0032 12.3508 28.0625 12.5 28.0625H17C17.1492 28.0625 17.2923 28.0032 17.3977 27.8977C17.5032 27.7923 17.5625 27.6492 17.5625 27.5C17.5625 27.3508 17.5032 27.2077 17.3977 27.1023C17.2923 26.9968 17.1492 26.9375 17 26.9375H13.8575L18.8975 21.8975C18.9969 21.7909 19.051 21.6498 19.0484 21.5041C19.0458 21.3584 18.9868 21.2193 18.8837 21.1163C18.7807 21.0132 18.6416 20.9542 18.4959 20.9516C18.3502 20.949 18.2091 21.0031 18.1025 21.1025Z" fill="#009E4F"/>
</svg>
