<svg width="48" height="48" viewBox="0 0 48 48" fill="none" xmlns="http://www.w3.org/2000/svg">
<rect width="48" height="48" rx="12" fill="#253C25"/>
<path d="M37.6336 14.6C37.5661 14.4929 37.4725 14.4047 37.3617 14.3435C37.2509 14.2823 37.1264 14.2501 36.9998 14.25H12.9998C12.8516 14.2501 12.7067 14.2942 12.5835 14.3766C12.4603 14.459 12.3643 14.5761 12.3075 14.7131C12.2508 14.85 12.236 15.0007 12.2649 15.1461C12.2937 15.2915 12.3651 15.4251 12.4698 15.53L17.9386 21L12.4698 26.47C12.3651 26.5749 12.2937 26.7085 12.2649 26.8539C12.236 26.9993 12.2508 27.15 12.3075 27.2869C12.3643 27.4239 12.4603 27.541 12.5835 27.6234C12.7067 27.7058 12.8516 27.7499 12.9998 27.75H30.0973L26.3223 35.6775C26.28 35.7665 26.2556 35.8629 26.2505 35.9613C26.2454 36.0597 26.2598 36.1582 26.2927 36.251C26.3257 36.3439 26.3766 36.4293 26.4426 36.5025C26.5086 36.5757 26.5884 36.6351 26.6773 36.6775C26.7663 36.7199 26.8627 36.7443 26.9611 36.7493C27.0596 36.7544 27.158 36.7401 27.2509 36.7071C27.3437 36.6741 27.4292 36.6232 27.5023 36.5572C27.5755 36.4912 27.635 36.4115 27.6773 36.3225L37.6773 15.3225C37.7316 15.2082 37.756 15.082 37.7484 14.9556C37.7407 14.8293 37.7012 14.707 37.6336 14.6ZM30.8123 26.25H14.8123L19.5311 21.53C19.6715 21.3894 19.7504 21.1988 19.7504 21C19.7504 20.8012 19.6715 20.6106 19.5311 20.47L14.8111 15.75H35.8111L30.8123 26.25Z" fill="#49C96D"/>
</svg>
