<svg width="48" height="48" viewBox="0 0 48 48" fill="none" xmlns="http://www.w3.org/2000/svg">
<rect width="48" height="48" rx="12" fill="#242A3A"/>
<path d="M11.5 23.75C11.3011 23.75 11.1103 23.671 10.9697 23.5303C10.829 23.3897 10.75 23.1989 10.75 23C10.75 22.8011 10.829 22.6103 10.9697 22.4697C11.1103 22.329 11.3011 22.25 11.5 22.25H15C15.3315 22.25 15.6495 22.1183 15.8839 21.8839C16.1183 21.6495 16.25 21.3315 16.25 21C16.25 20.6685 16.1183 20.3505 15.8839 20.1161C15.6495 19.8817 15.3315 19.75 15 19.75H13C12.2707 19.75 11.5712 19.4603 11.0555 18.9445C10.5397 18.4288 10.25 17.7293 10.25 17C10.25 16.2707 10.5397 15.5712 11.0555 15.0555C11.5712 14.5397 12.2707 14.25 13 14.25H13.25V14C13.25 13.8011 13.329 13.6103 13.4697 13.4697C13.6103 13.329 13.8011 13.25 14 13.25C14.1989 13.25 14.3897 13.329 14.5303 13.4697C14.671 13.6103 14.75 13.8011 14.75 14V14.25H16C16.1989 14.25 16.3897 14.329 16.5303 14.4697C16.671 14.6103 16.75 14.8011 16.75 15C16.75 15.1989 16.671 15.3897 16.5303 15.5303C16.3897 15.671 16.1989 15.75 16 15.75H13C12.6685 15.75 12.3505 15.8817 12.1161 16.1161C11.8817 16.3505 11.75 16.6685 11.75 17C11.75 17.3315 11.8817 17.6495 12.1161 17.8839C12.3505 18.1183 12.6685 18.25 13 18.25H15C15.7293 18.25 16.4288 18.5397 16.9445 19.0555C17.4603 19.5712 17.75 20.2707 17.75 21C17.75 21.7293 17.4603 22.4288 16.9445 22.9445C16.4288 23.4603 15.7293 23.75 15 23.75H14.75V24C14.75 24.1989 14.671 24.3897 14.5303 24.5303C14.3897 24.671 14.1989 24.75 14 24.75C13.8011 24.75 13.6103 24.671 13.4697 24.5303C13.329 24.3897 13.25 24.1989 13.25 24V23.75H11.5ZM36.75 15V32C36.75 32.4641 36.5656 32.9092 36.2374 33.2374C35.9092 33.5656 35.4641 33.75 35 33.75H13C12.5359 33.75 12.0908 33.5656 11.7626 33.2374C11.4344 32.9092 11.25 32.4641 11.25 32V27C11.25 26.8011 11.329 26.6103 11.4697 26.4697C11.6103 26.329 11.8011 26.25 12 26.25C12.1989 26.25 12.3897 26.329 12.5303 26.4697C12.671 26.6103 12.75 26.8011 12.75 27V32C12.75 32.0663 12.7763 32.1299 12.8232 32.1768C12.8701 32.2237 12.9337 32.25 13 32.25H28.25V27.75H18C17.8011 27.75 17.6103 27.671 17.4697 27.5303C17.329 27.3897 17.25 27.1989 17.25 27C17.25 26.8011 17.329 26.6103 17.4697 26.4697C17.6103 26.329 17.8011 26.25 18 26.25H28.25V21.75H21C20.8011 21.75 20.6103 21.671 20.4697 21.5303C20.329 21.3897 20.25 21.1989 20.25 21C20.25 20.8011 20.329 20.6103 20.4697 20.4697C20.6103 20.329 20.8011 20.25 21 20.25H35.25V15.75H20C19.8011 15.75 19.6103 15.671 19.4697 15.5303C19.329 15.3897 19.25 15.1989 19.25 15C19.25 14.8011 19.329 14.6103 19.4697 14.4697C19.6103 14.329 19.8011 14.25 20 14.25H36C36.1989 14.25 36.3897 14.329 36.5303 14.4697C36.671 14.6103 36.75 14.8011 36.75 15ZM29.75 26.25H35.25V21.75H29.75V26.25ZM35.25 32V27.75H29.75V32.25H35C35.0663 32.25 35.1299 32.2237 35.1768 32.1768C35.2237 32.1299 35.25 32.0663 35.25 32Z" fill="#5848E5"/>
</svg>
