<svg width="48" height="48" viewBox="0 0 48 48" fill="none" xmlns="http://www.w3.org/2000/svg">
<rect width="48" height="48" rx="12" fill="#3A302A"/>
<path d="M38.3975 15.715C38.2896 15.6477 38.1663 15.6089 38.0392 15.6023C37.9122 15.5958 37.7855 15.6216 37.6712 15.6775C32.2137 18.3425 28.335 17.1012 24.2288 15.7875C20.02 14.4412 15.6687 13.05 9.67125 15.98C9.54498 16.0416 9.43854 16.1374 9.36407 16.2565C9.28959 16.3756 9.25007 16.5133 9.25 16.6537V31.6537C9.25006 31.7809 9.28246 31.906 9.34416 32.0172C9.40586 32.1284 9.49483 32.2221 9.6027 32.2895C9.71057 32.3569 9.8338 32.3957 9.96081 32.4024C10.0878 32.409 10.2144 32.3832 10.3287 32.3275C15.7863 29.6625 19.665 30.9037 23.7712 32.2175C26.1462 32.9787 28.5788 33.755 31.3237 33.755C33.43 33.755 35.725 33.2975 38.3237 32.025C38.45 31.9634 38.5565 31.8676 38.6309 31.7485C38.7054 31.6294 38.7449 31.4917 38.745 31.3512V16.3512C38.7456 16.2245 38.714 16.0996 38.6532 15.9883C38.5925 15.8771 38.5045 15.783 38.3975 15.715ZM37.25 30.875C32.0125 33.2762 28.2288 32.0662 24.2288 30.7862C21.8475 30.0225 19.4213 29.25 16.6763 29.25C14.865 29.25 12.9162 29.5875 10.75 30.49V17.125C15.9875 14.7237 19.7712 15.9337 23.7712 17.2137C27.7225 18.48 31.8013 19.785 37.25 17.5137V30.875ZM24 20.25C23.2583 20.25 22.5333 20.4699 21.9166 20.882C21.2999 21.294 20.8193 21.8797 20.5355 22.5649C20.2516 23.2501 20.1774 24.0041 20.3221 24.7316C20.4667 25.459 20.8239 26.1272 21.3483 26.6516C21.8728 27.1761 22.541 27.5332 23.2684 27.6779C23.9958 27.8226 24.7498 27.7484 25.4351 27.4645C26.1203 27.1807 26.706 26.7001 27.118 26.0834C27.5301 25.4667 27.75 24.7417 27.75 24C27.75 23.0054 27.3549 22.0516 26.6517 21.3483C25.9484 20.6451 24.9946 20.25 24 20.25ZM24 26.25C23.555 26.25 23.12 26.118 22.75 25.8708C22.38 25.6236 22.0916 25.2722 21.9213 24.861C21.751 24.4499 21.7064 23.9975 21.7932 23.561C21.88 23.1246 22.0943 22.7237 22.409 22.409C22.7237 22.0943 23.1246 21.88 23.561 21.7932C23.9975 21.7064 24.4499 21.751 24.861 21.9213C25.2722 22.0916 25.6236 22.3799 25.8708 22.75C26.118 23.12 26.25 23.555 26.25 24C26.25 24.5967 26.0129 25.169 25.591 25.591C25.169 26.0129 24.5967 26.25 24 26.25ZM14.75 20V26C14.75 26.1989 14.671 26.3897 14.5303 26.5303C14.3897 26.671 14.1989 26.75 14 26.75C13.8011 26.75 13.6103 26.671 13.4697 26.5303C13.329 26.3897 13.25 26.1989 13.25 26V20C13.25 19.8011 13.329 19.6103 13.4697 19.4697C13.6103 19.329 13.8011 19.25 14 19.25C14.1989 19.25 14.3897 19.329 14.5303 19.4697C14.671 19.6103 14.75 19.8011 14.75 20ZM33.25 28V22C33.25 21.8011 33.329 21.6103 33.4697 21.4697C33.6103 21.329 33.8011 21.25 34 21.25C34.1989 21.25 34.3897 21.329 34.5303 21.4697C34.671 21.6103 34.75 21.8011 34.75 22V28C34.75 28.1989 34.671 28.3897 34.5303 28.5303C34.3897 28.671 34.1989 28.75 34 28.75C33.8011 28.75 33.6103 28.671 33.4697 28.5303C33.329 28.3897 33.25 28.1989 33.25 28Z" fill="#FF965D"/>
</svg>
