<svg width="48" height="48" viewBox="0 0 48 48" fill="none" xmlns="http://www.w3.org/2000/svg">
<rect width="48" height="48" rx="12" fill="#341833"/>
<path d="M33.5299 15.5287L15.5298 33.5287C15.3877 33.6612 15.1996 33.7333 15.0053 33.7299C14.811 33.7265 14.6256 33.6478 14.4882 33.5104C14.3508 33.3729 14.2721 33.1876 14.2687 32.9933C14.2652 32.799 14.3374 32.6109 14.4698 32.4687L32.4698 14.4687C32.5393 14.3982 32.6221 14.3421 32.7133 14.3037C32.8046 14.2653 32.9026 14.2454 33.0016 14.2451C33.1006 14.2447 33.1987 14.264 33.2902 14.3017C33.3817 14.3395 33.4648 14.395 33.5348 14.465C33.6048 14.5351 33.6602 14.6183 33.6978 14.7099C33.7355 14.8014 33.7546 14.8995 33.7542 14.9985C33.7537 15.0975 33.7336 15.1955 33.6951 15.2867C33.6566 15.3779 33.6005 15.4606 33.5299 15.53V15.5287ZM14.4998 20.5C13.8057 19.8034 13.3746 18.8877 13.28 17.9089C13.1854 16.93 13.4331 15.9487 13.981 15.1321C14.5289 14.3155 15.3431 13.7141 16.2847 13.4305C17.2263 13.147 18.2371 13.1987 19.1449 13.5769C20.0526 13.9552 20.8011 14.6365 21.2628 15.5047C21.7245 16.373 21.8707 17.3745 21.6767 18.3386C21.4827 19.3027 20.9603 20.1696 20.1987 20.7917C19.437 21.4137 18.4832 21.7524 17.4998 21.75C16.942 21.7501 16.3897 21.6397 15.8748 21.4252C15.3598 21.2106 14.8925 20.8962 14.4998 20.5ZM14.7498 17.5C14.7501 18.1362 14.9709 18.7527 15.3746 19.2443C15.7784 19.736 16.3402 20.0725 16.9642 20.1964C17.5882 20.3203 18.2359 20.2241 18.7969 19.924C19.3579 19.6239 19.7975 19.1386 20.0408 18.5507C20.2841 17.9629 20.3161 17.3088 20.1312 16.7001C19.9464 16.0913 19.5562 15.5655 19.0271 15.2121C18.498 14.8588 17.8628 14.6999 17.2296 14.7624C16.5965 14.8249 16.0046 15.105 15.5548 15.555C15.2987 15.8099 15.0957 16.113 14.9575 16.4469C14.8194 16.7807 14.7488 17.1387 14.7498 17.5ZM34.7498 30.5C34.7523 31.4834 34.4136 32.4372 33.7915 33.1988C33.1695 33.9604 32.3025 34.4828 31.3385 34.6768C30.3744 34.8709 29.3729 34.7246 28.5046 34.2629C27.6363 33.8013 26.955 33.0528 26.5768 32.145C26.1986 31.2373 26.1468 30.2265 26.4304 29.2848C26.714 28.3432 27.3153 27.5291 28.1319 26.9812C28.9485 26.4333 29.9299 26.1855 30.9087 26.2801C31.8875 26.3747 32.8033 26.8058 33.4998 27.5C33.896 27.8927 34.2105 28.36 34.425 28.8749C34.6396 29.3898 34.75 29.9422 34.7498 30.5ZM33.2498 30.5C33.2509 30.1387 33.1802 29.7808 33.0421 29.4469C32.9039 29.1131 32.7009 28.8099 32.4448 28.555C31.9951 28.105 31.4032 27.8249 30.7701 27.7624C30.1369 27.6999 29.5017 27.8588 28.9726 28.2121C28.4435 28.5655 28.0533 29.0913 27.8685 29.7001C27.6836 30.3088 27.7156 30.9629 27.9589 31.5507C28.2022 32.1386 28.6418 32.6239 29.2028 32.924C29.7638 33.2241 30.4115 33.3203 31.0355 33.1964C31.6595 33.0725 32.2213 32.736 32.6251 32.2443C33.0288 31.7527 33.2496 31.1362 33.2498 30.5Z" fill="#AD3B8D"/>
</svg>
