<svg width="48" height="48" viewBox="0 0 48 48" fill="none" xmlns="http://www.w3.org/2000/svg">
<rect width="48" height="48" rx="12" fill="#1D323C"/>
<path d="M24.7498 18V23.575L29.386 26.3563C29.5568 26.4587 29.6798 26.6248 29.7281 26.818C29.7764 27.0111 29.746 27.2156 29.6435 27.3863C29.5411 27.557 29.375 27.6801 29.1819 27.7284C28.9887 27.7766 28.7843 27.7462 28.6135 27.6438L23.6135 24.6438C23.5025 24.577 23.4106 24.4827 23.3468 24.3699C23.2831 24.257 23.2496 24.1296 23.2498 24V18C23.2498 17.8011 23.3288 17.6104 23.4695 17.4697C23.6101 17.3291 23.8009 17.25 23.9998 17.25C24.1987 17.25 24.3895 17.3291 24.5301 17.4697C24.6708 17.6104 24.7498 17.8011 24.7498 18ZM35.9998 15.25C35.8009 15.25 35.6101 15.3291 35.4695 15.4697C35.3288 15.6104 35.2498 15.8011 35.2498 16V18.92C34.3148 17.8163 33.3823 16.7788 32.3085 15.6913C30.6755 14.0582 28.5974 12.9426 26.334 12.4839C24.0705 12.0252 21.7221 12.2436 19.5821 13.1119C17.4421 13.9803 15.6054 15.46 14.3016 17.3662C12.9978 19.2724 12.2846 21.5206 12.2512 23.8298C12.2178 26.1391 12.8657 28.4069 14.1138 30.3501C15.362 32.2932 17.1551 33.8254 19.2691 34.7553C21.3831 35.6851 23.7242 35.9714 26 35.5783C28.2758 35.1852 30.3852 34.1302 32.0648 32.545C32.2045 32.4073 32.2847 32.2204 32.2882 32.0242C32.2917 31.8281 32.2182 31.6384 32.0834 31.4958C31.9487 31.3532 31.7634 31.2691 31.5674 31.2615C31.3714 31.2538 31.1802 31.3233 31.0348 31.455C29.5693 32.8372 27.7289 33.7568 25.7438 34.0991C23.7586 34.4414 21.7166 34.1911 19.8728 33.3795C18.0291 32.568 16.4653 31.2311 15.377 29.536C14.2886 27.8408 13.7238 25.8625 13.7533 23.8483C13.7827 21.834 14.4051 19.8731 15.5425 18.2105C16.68 16.5479 18.2822 15.2573 20.1489 14.5C22.0155 13.7427 24.064 13.5522 26.0383 13.9524C28.0127 14.3526 29.8253 15.3256 31.2498 16.75C32.4048 17.92 33.3973 19.0375 34.4135 20.25H30.9998C30.8009 20.25 30.6101 20.3291 30.4695 20.4697C30.3288 20.6104 30.2498 20.8011 30.2498 21C30.2498 21.1989 30.3288 21.3897 30.4695 21.5304C30.6101 21.671 30.8009 21.75 30.9998 21.75H35.9998C36.1987 21.75 36.3895 21.671 36.5301 21.5304C36.6708 21.3897 36.7498 21.1989 36.7498 21V16C36.7498 15.8011 36.6708 15.6104 36.5301 15.4697C36.3895 15.3291 36.1987 15.25 35.9998 15.25Z" fill="#4683F3"/>
</svg>
