<svg width="18" height="18" viewBox="0 0 18 18" fill="none" xmlns="http://www.w3.org/2000/svg">
<path d="M17.0625 1.5V6C17.0625 6.14918 17.0032 6.29226 16.8977 6.39775C16.7923 6.50324 16.6492 6.5625 16.5 6.5625C16.3508 6.5625 16.2077 6.50324 16.1023 6.39775C15.9968 6.29226 15.9375 6.14918 15.9375 6V2.8575L10.8975 7.8975C10.7909 7.99686 10.6498 8.05095 10.5041 8.04838C10.3584 8.04581 10.2193 7.98678 10.1163 7.88372C10.0132 7.78066 9.95419 7.64162 9.95162 7.49589C9.94905 7.35017 10.0031 7.20913 10.1025 7.1025L15.1425 2.0625H12C11.8508 2.0625 11.7077 2.00324 11.6023 1.89775C11.4968 1.79226 11.4375 1.64918 11.4375 1.5C11.4375 1.35082 11.4968 1.20774 11.6023 1.10225C11.7077 0.996763 11.8508 0.9375 12 0.9375H16.5C16.6492 0.9375 16.7923 0.996763 16.8977 1.10225C17.0032 1.20774 17.0625 1.35082 17.0625 1.5ZM7.1025 10.1025L2.0625 15.1425V12C2.0625 11.8508 2.00324 11.7077 1.89775 11.6023C1.79226 11.4968 1.64918 11.4375 1.5 11.4375C1.35082 11.4375 1.20774 11.4968 1.10225 11.6023C0.996763 11.7077 0.9375 11.8508 0.9375 12V16.5C0.9375 16.6492 0.996763 16.7923 1.10225 16.8977C1.20774 17.0032 1.35082 17.0625 1.5 17.0625H6C6.14918 17.0625 6.29226 17.0032 6.39775 16.8977C6.50324 16.7923 6.5625 16.6492 6.5625 16.5C6.5625 16.3508 6.50324 16.2077 6.39775 16.1023C6.29226 15.9968 6.14918 15.9375 6 15.9375H2.8575L7.8975 10.8975C7.99686 10.7909 8.05095 10.6498 8.04838 10.5041C8.04581 10.3584 7.98678 10.2193 7.88372 10.1163C7.78066 10.0132 7.64162 9.95419 7.49589 9.95162C7.35017 9.94905 7.20913 10.0031 7.1025 10.1025Z" fill="#009E4F"/>
</svg>
